<svg width="24" height="24" viewBox="0 0 24 24" fill="none" xmlns="http://www.w3.org/2000/svg">
<g clip-path="url(#clip0_1416_14772)">
<mask id="path-1-inside-1_1416_14772" fill="white">
<path d="M12.0001 12C12.7912 12 13.5645 11.7654 14.2223 11.3259C14.8801 10.8864 15.3928 10.2616 15.6956 9.53073C15.9983 8.79983 16.0775 7.99556 15.9232 7.21964C15.7689 6.44371 15.3879 5.73098 14.8285 5.17157C14.2691 4.61216 13.5563 4.2312 12.7804 4.07686C12.0045 3.92252 11.2002 4.00173 10.4693 4.30448C9.73842 4.60723 9.1137 5.11992 8.67418 5.77772C8.23465 6.43552 8.00006 7.20887 8.00006 8C8.00006 9.06087 8.42148 10.0783 9.17163 10.8284C9.92177 11.5786 10.9392 12 12.0001 12ZM12.0001 6C12.3956 6 12.7823 6.1173 13.1112 6.33706C13.4401 6.55682 13.6964 6.86918 13.8478 7.23463C13.9992 7.60009 14.0388 8.00222 13.9616 8.39018C13.8845 8.77814 13.694 9.13451 13.4143 9.41421C13.1346 9.69392 12.7782 9.8844 12.3902 9.96157C12.0023 10.0387 11.6001 9.99913 11.2347 9.84776C10.8692 9.69638 10.5569 9.44004 10.3371 9.11114C10.1174 8.78224 10.0001 8.39556 10.0001 8C10.0001 7.46957 10.2108 6.96086 10.5858 6.58579C10.9609 6.21071 11.4696 6 12.0001 6ZM20.6601 9.157L19.9411 8.918C20.0704 7.79792 19.9616 6.66315 19.6217 5.58809C19.2817 4.51302 18.7184 3.52196 17.9686 2.67989C17.2187 1.83782 16.2994 1.16376 15.2708 0.701913C14.2422 0.240067 13.1276 0.000867481 12.0001 0C10.8578 0.000440969 9.72893 0.245694 8.68947 0.719235C7.65001 1.19278 6.72412 1.8836 5.97418 2.74518C5.22424 3.60675 4.66767 4.61905 4.34197 5.71387C4.01627 6.80869 3.929 7.96061 4.08606 9.092C3.12909 9.27043 2.24418 9.72192 1.53806 10.392C1.04923 10.8567 0.660625 11.4166 0.396134 12.037C0.131643 12.6575 -0.00314538 13.3255 5.5707e-05 14V18.075C0.0021573 19.1563 0.353848 20.208 1.00265 21.0731C1.65144 21.9381 2.56257 22.5702 3.60006 22.875L6.47006 23.775C6.95212 23.925 7.45419 24.0009 7.95906 24C8.41705 23.9994 8.87285 23.9368 9.31406 23.814L15.0941 22.104C15.609 21.9635 16.1521 21.9635 16.6671 22.104L19.0541 22.904C19.6424 23.0472 20.2555 23.055 20.8472 22.9267C21.439 22.7985 21.9939 22.5376 22.4701 22.1637C22.9464 21.7898 23.3315 21.3127 23.5965 20.7683C23.8615 20.2239 23.9995 19.6265 24.0001 19.021V13.872C23.9978 12.8374 23.6756 11.8288 23.0776 10.9845C22.4797 10.1402 21.6352 9.50255 20.6601 9.157ZM7.75806 3.762C8.31431 3.20349 8.97539 2.76032 9.70334 2.45793C10.4313 2.15554 11.2118 1.99988 12.0001 1.99988C12.7883 1.99988 13.5688 2.15554 14.2968 2.45793C15.0247 2.76032 15.6858 3.20349 16.2421 3.762C17.3642 4.89114 17.995 6.41782 17.997 8.00974C17.9991 9.60166 17.3723 11.13 16.2531 12.262L12.7001 15.717C12.5146 15.8988 12.2653 16.0007 12.0056 16.0007C11.7458 16.0007 11.4965 15.8988 11.3111 15.717L7.75806 12.277C6.63353 11.1454 6.00236 9.61484 6.00236 8.0195C6.00236 6.42416 6.63353 4.89361 7.75806 3.762ZM22.0001 19.021C22.0007 19.3239 21.9322 19.6229 21.7998 19.8953C21.6674 20.1677 21.4746 20.4063 21.2361 20.593C21.0107 20.7742 20.7481 20.9035 20.4671 20.9718C20.1861 21.0401 19.8935 21.0456 19.6101 20.988L17.2651 20.2C16.3781 19.9452 15.438 19.9396 14.5481 20.184L8.76406 21.892C8.20833 22.0453 7.62021 22.0352 7.07006 21.863L4.17606 20.963C3.54971 20.7819 2.99901 20.4025 2.60665 19.8817C2.2143 19.361 2.00144 18.727 2.00006 18.075V14C1.99781 13.5958 2.07826 13.1954 2.23648 12.8234C2.39469 12.4514 2.62732 12.1157 2.92006 11.837C3.37831 11.4003 3.96207 11.1184 4.58906 11.031C4.99216 12.0302 5.59244 12.9379 6.35406 13.7L9.92106 17.153C10.4786 17.6989 11.2278 18.0046 12.0081 18.0046C12.7883 18.0046 13.5375 17.6989 14.0951 17.153L17.6581 13.69C18.4558 12.889 19.0738 11.9274 19.4711 10.869L20.0081 11.047C20.5904 11.2557 21.0942 11.639 21.4507 12.1445C21.8072 12.6501 21.9991 13.2534 22.0001 13.872V19.021Z"/>
</mask>
<path d="M12.0001 12C12.7912 12 13.5645 11.7654 14.2223 11.3259C14.8801 10.8864 15.3928 10.2616 15.6956 9.53073C15.9983 8.79983 16.0775 7.99556 15.9232 7.21964C15.7689 6.44371 15.3879 5.73098 14.8285 5.17157C14.2691 4.61216 13.5563 4.2312 12.7804 4.07686C12.0045 3.92252 11.2002 4.00173 10.4693 4.30448C9.73842 4.60723 9.1137 5.11992 8.67418 5.77772C8.23465 6.43552 8.00006 7.20887 8.00006 8C8.00006 9.06087 8.42148 10.0783 9.17163 10.8284C9.92177 11.5786 10.9392 12 12.0001 12ZM12.0001 6C12.3956 6 12.7823 6.1173 13.1112 6.33706C13.4401 6.55682 13.6964 6.86918 13.8478 7.23463C13.9992 7.60009 14.0388 8.00222 13.9616 8.39018C13.8845 8.77814 13.694 9.13451 13.4143 9.41421C13.1346 9.69392 12.7782 9.8844 12.3902 9.96157C12.0023 10.0387 11.6001 9.99913 11.2347 9.84776C10.8692 9.69638 10.5569 9.44004 10.3371 9.11114C10.1174 8.78224 10.0001 8.39556 10.0001 8C10.0001 7.46957 10.2108 6.96086 10.5858 6.58579C10.9609 6.21071 11.4696 6 12.0001 6ZM20.6601 9.157L19.9411 8.918C20.0704 7.79792 19.9616 6.66315 19.6217 5.58809C19.2817 4.51302 18.7184 3.52196 17.9686 2.67989C17.2187 1.83782 16.2994 1.16376 15.2708 0.701913C14.2422 0.240067 13.1276 0.000867481 12.0001 0C10.8578 0.000440969 9.72893 0.245694 8.68947 0.719235C7.65001 1.19278 6.72412 1.8836 5.97418 2.74518C5.22424 3.60675 4.66767 4.61905 4.34197 5.71387C4.01627 6.80869 3.929 7.96061 4.08606 9.092C3.12909 9.27043 2.24418 9.72192 1.53806 10.392C1.04923 10.8567 0.660625 11.4166 0.396134 12.037C0.131643 12.6575 -0.00314538 13.3255 5.5707e-05 14V18.075C0.0021573 19.1563 0.353848 20.208 1.00265 21.0731C1.65144 21.9381 2.56257 22.5702 3.60006 22.875L6.47006 23.775C6.95212 23.925 7.45419 24.0009 7.95906 24C8.41705 23.9994 8.87285 23.9368 9.31406 23.814L15.0941 22.104C15.609 21.9635 16.1521 21.9635 16.6671 22.104L19.0541 22.904C19.6424 23.0472 20.2555 23.055 20.8472 22.9267C21.439 22.7985 21.9939 22.5376 22.4701 22.1637C22.9464 21.7898 23.3315 21.3127 23.5965 20.7683C23.8615 20.2239 23.9995 19.6265 24.0001 19.021V13.872C23.9978 12.8374 23.6756 11.8288 23.0776 10.9845C22.4797 10.1402 21.6352 9.50255 20.6601 9.157ZM7.75806 3.762C8.31431 3.20349 8.97539 2.76032 9.70334 2.45793C10.4313 2.15554 11.2118 1.99988 12.0001 1.99988C12.7883 1.99988 13.5688 2.15554 14.2968 2.45793C15.0247 2.76032 15.6858 3.20349 16.2421 3.762C17.3642 4.89114 17.995 6.41782 17.997 8.00974C17.9991 9.60166 17.3723 11.13 16.2531 12.262L12.7001 15.717C12.5146 15.8988 12.2653 16.0007 12.0056 16.0007C11.7458 16.0007 11.4965 15.8988 11.3111 15.717L7.75806 12.277C6.63353 11.1454 6.00236 9.61484 6.00236 8.0195C6.00236 6.42416 6.63353 4.89361 7.75806 3.762ZM22.0001 19.021C22.0007 19.3239 21.9322 19.6229 21.7998 19.8953C21.6674 20.1677 21.4746 20.4063 21.2361 20.593C21.0107 20.7742 20.7481 20.9035 20.4671 20.9718C20.1861 21.0401 19.8935 21.0456 19.6101 20.988L17.2651 20.2C16.3781 19.9452 15.438 19.9396 14.5481 20.184L8.76406 21.892C8.20833 22.0453 7.62021 22.0352 7.07006 21.863L4.17606 20.963C3.54971 20.7819 2.99901 20.4025 2.60665 19.8817C2.2143 19.361 2.00144 18.727 2.00006 18.075V14C1.99781 13.5958 2.07826 13.1954 2.23648 12.8234C2.39469 12.4514 2.62732 12.1157 2.92006 11.837C3.37831 11.4003 3.96207 11.1184 4.58906 11.031C4.99216 12.0302 5.59244 12.9379 6.35406 13.7L9.92106 17.153C10.4786 17.6989 11.2278 18.0046 12.0081 18.0046C12.7883 18.0046 13.5375 17.6989 14.0951 17.153L17.6581 13.69C18.4558 12.889 19.0738 11.9274 19.4711 10.869L20.0081 11.047C20.5904 11.2557 21.0942 11.639 21.4507 12.1445C21.8072 12.6501 21.9991 13.2534 22.0001 13.872V19.021Z" fill="#6C757D"/>
<path d="M15.9232 7.21964L36.8466 3.05771L15.9232 7.21964ZM8.00006 8H-13.3333H8.00006ZM20.6601 9.157L27.7853 -10.9513L27.588 -11.0212L27.3893 -11.0872L20.6601 9.157ZM19.9411 8.918L-1.25136 6.46999L-3.24087 23.6933L13.2118 29.1622L19.9411 8.918ZM12.0001 0L12.0165 -21.3333L12.0041 -21.3333L11.9918 -21.3333L12.0001 0ZM4.08606 9.092L7.99641 30.0639L28.0169 26.3309L25.2168 6.15876L4.08606 9.092ZM1.53806 10.392L-13.1468 -5.0827L-13.154 -5.07583L-13.1613 -5.06896L1.53806 10.392ZM5.5707e-05 14H21.3334V13.9494L21.3331 13.8988L5.5707e-05 14ZM5.5707e-05 18.075H-21.3333V18.0957L-21.3332 18.1165L5.5707e-05 18.075ZM3.60006 22.875L9.98344 2.51908L9.79882 2.46118L9.61318 2.40665L3.60006 22.875ZM6.47006 23.775L0.0866698 44.1309L0.108618 44.1378L0.13058 44.1446L6.47006 23.775ZM7.95906 24L7.93169 2.66668L7.92123 2.6667L7.95906 24ZM9.31406 23.814L15.0362 44.3656L15.2016 44.3196L15.3662 44.2709L9.31406 23.814ZM15.0941 22.104L9.47683 1.52348L9.25873 1.58301L9.04194 1.64714L15.0941 22.104ZM16.6671 22.104L23.4463 1.87646L22.8703 1.68343L22.2843 1.52348L16.6671 22.104ZM19.0541 22.904L12.2748 43.1315L13.1312 43.4185L14.0087 43.6321L19.0541 22.904ZM24.0001 19.021L45.3334 19.0398L45.3334 19.0304V19.021H24.0001ZM24.0001 13.872H45.3334V13.8486L45.3333 13.8252L24.0001 13.872ZM7.75806 3.762L-7.35736 -11.2924L-7.36576 -11.284L-7.37416 -11.2755L7.75806 3.762ZM12.0001 1.99988V-19.3335V1.99988ZM16.2421 3.762L31.3737 -11.2761L31.3656 -11.2843L31.3575 -11.2924L16.2421 3.762ZM16.2531 12.262L31.1256 27.5564L31.276 27.4101L31.4236 27.2609L16.2531 12.262ZM12.7001 15.717L-2.17248 0.4226L-2.20402 0.453265L-2.23543 0.48406L12.7001 15.717ZM11.3111 15.717L26.2465 0.48406L26.1986 0.437027L26.1503 0.390297L11.3111 15.717ZM7.75806 12.277L-7.37416 27.3145L-7.22907 27.4605L-7.08119 27.6037L7.75806 12.277ZM22.0001 19.021H0.666724V19.0425L0.666767 19.0641L22.0001 19.021ZM21.2361 20.593L8.08894 3.79227L7.97828 3.87887L7.86877 3.96691L21.2361 20.593ZM19.6101 20.988L12.8147 41.2101L14.0664 41.6307L15.3603 41.8938L19.6101 20.988ZM17.2651 20.2L24.0604 -0.0221335L23.6112 -0.173079L23.1557 -0.303929L17.2651 20.2ZM14.5481 20.184L8.89928 -0.387884L8.70225 -0.333783L8.5063 -0.275919L14.5481 20.184ZM8.76406 21.892L14.4369 42.4573L14.6218 42.4063L14.8058 42.3519L8.76406 21.892ZM7.07006 21.863L13.4435 1.50395L13.4243 1.49797L13.4052 1.49202L7.07006 21.863ZM4.17606 20.963L10.5112 0.592014L10.3074 0.528627L10.1023 0.469331L4.17606 20.963ZM2.00006 18.075H-19.3333V18.0977L-19.3332 18.1204L2.00006 18.075ZM2.00006 14H23.3334V13.9407L23.3331 13.8814L2.00006 14ZM2.92006 11.837L17.6314 27.2865L17.638 27.2802L2.92006 11.837ZM4.58906 11.031L24.373 3.04945L18.1416 -12.3965L1.64533 -10.0983L4.58906 11.031ZM6.35406 13.7L-8.73558 28.7803L-8.6108 28.9051L-8.48396 29.0279L6.35406 13.7ZM9.92106 17.153L24.8465 1.91024L24.8029 1.86755L24.7591 1.82511L9.92106 17.153ZM12.0081 18.0046V-3.3287V18.0046ZM14.0951 17.153L-0.773678 1.8549L-0.802095 1.88252L-0.830409 1.91024L14.0951 17.153ZM17.6581 13.69L32.5268 28.9881L32.6511 28.8673L32.7733 28.7446L17.6581 13.69ZM19.4711 10.869L26.1833 -9.38086L6.70749 -15.8365L-0.501957 3.37302L19.4711 10.869ZM20.0081 11.047L27.2043 -9.03596L26.9633 -9.12231L26.7203 -9.20286L20.0081 11.047ZM22.0001 13.872H43.3334V13.8549L43.3334 13.8378L22.0001 13.872ZM12.0001 12V33.3333C17.0105 33.3333 21.9085 31.8476 26.0745 29.0639L14.2223 11.3259L2.37017 -6.41214C5.22062 -8.31675 8.57184 -9.33333 12.0001 -9.33333V12ZM14.2223 11.3259L26.0745 29.0639C30.2405 26.2802 33.4876 22.3237 35.405 17.6946L15.6956 9.53073L-4.01385 1.36682C-2.70193 -1.80045 -0.480263 -4.50754 2.37017 -6.41214L14.2223 11.3259ZM15.6956 9.53073L35.405 17.6946C37.3224 13.0656 37.8241 7.9719 36.8466 3.05771L15.9232 7.21964L-5.00022 11.3816C-5.66903 8.01923 -5.32577 4.53407 -4.01385 1.36682L15.6956 9.53073ZM15.9232 7.21964L36.8466 3.05771C35.8691 -1.85647 33.4564 -6.37044 29.9134 -9.91337L14.8285 5.17157L-0.25646 20.2565C-2.68057 17.8324 -4.33141 14.7439 -5.00022 11.3816L15.9232 7.21964ZM14.8285 5.17157L29.9134 -9.91337C26.3705 -13.4563 21.8565 -15.8691 16.9423 -16.8466L12.7804 4.07686L8.61849 25.0003C5.25616 24.3315 2.16766 22.6806 -0.25646 20.2565L14.8285 5.17157ZM12.7804 4.07686L16.9423 -16.8466C12.0282 -17.8241 6.93447 -17.3224 2.30541 -15.4049L10.4693 4.30448L18.6332 24.0139C15.466 25.3258 11.9808 25.6691 8.61849 25.0003L12.7804 4.07686ZM10.4693 4.30448L2.30541 -15.4049C-2.32366 -13.4875 -6.28018 -10.2405 -9.06384 -6.07445L8.67418 5.77772L26.4122 17.6299C24.5076 20.4803 21.8005 22.702 18.6332 24.0139L10.4693 4.30448ZM8.67418 5.77772L-9.06384 -6.07445C-11.8475 -1.90841 -13.3333 2.98953 -13.3333 8H8.00006H29.3334C29.3334 11.4282 28.3168 14.7794 26.4122 17.6299L8.67418 5.77772ZM8.00006 8H-13.3333C-13.3333 14.7188 -10.6642 21.1624 -5.91332 25.9134L9.17163 10.8284L24.2566 -4.25652C27.5072 -1.00589 29.3334 3.40292 29.3334 8H8.00006ZM9.17163 10.8284L-5.91332 25.9134C-1.16239 30.6643 5.28124 33.3333 12.0001 33.3333V12V-9.33333C16.5971 -9.33333 21.0059 -7.50715 24.2566 -4.25652L9.17163 10.8284ZM12.0001 6V27.3333C8.17628 27.3333 4.43838 26.1994 1.25903 24.0751L13.1112 6.33706L24.9634 -11.401C21.1262 -13.9649 16.615 -15.3333 12.0001 -15.3333V6ZM13.1112 6.33706L1.25903 24.0751C-1.9203 21.9507 -4.39831 18.9313 -5.86161 15.3985L13.8478 7.23463L33.5572 -0.929281C31.7912 -5.19291 28.8005 -8.83707 24.9634 -11.401L13.1112 6.33706ZM13.8478 7.23463L-5.86161 15.3985C-7.32491 11.8658 -7.70777 7.97855 -6.96179 4.22825L13.9616 8.39018L34.885 12.5521C35.7854 8.02588 35.3233 3.33433 33.5572 -0.929281L13.8478 7.23463ZM13.9616 8.39018L-6.96179 4.22825C-6.21581 0.477929 -4.37447 -2.96694 -1.67067 -5.67073L13.4143 9.41421L28.4992 24.4992C31.7624 21.236 33.9847 17.0784 34.885 12.5521L13.9616 8.39018ZM13.4143 9.41421L-1.67067 -5.67073C1.03312 -8.37453 4.47799 -10.2159 8.22831 -10.9618L12.3902 9.96157L16.5522 30.885C21.0784 29.9847 25.236 27.7624 28.4992 24.4992L13.4143 9.41421ZM12.3902 9.96157L8.22831 -10.9618C11.9786 -11.7078 15.8659 -11.325 19.3986 -9.86167L11.2347 9.84776L3.07078 29.5572C7.33439 31.3232 12.0259 31.7853 16.5522 30.885L12.3902 9.96157ZM11.2347 9.84776L19.3986 -9.86167C22.9313 -8.39837 25.9508 -5.92037 28.0751 -2.74103L10.3371 9.11114L-7.4009 20.9633C-4.83701 24.8004 -1.19284 27.7911 3.07078 29.5572L11.2347 9.84776ZM10.3371 9.11114L28.0751 -2.74103C30.1995 0.438318 31.3334 4.17622 31.3334 8H10.0001H-11.3333C-11.3333 12.6149 -9.9648 17.1262 -7.4009 20.9633L10.3371 9.11114ZM10.0001 8H31.3334C31.3334 13.1275 29.2965 18.045 25.6708 21.6707L10.5858 6.58579L-4.4991 -8.49916C-8.87494 -4.12332 -11.3333 1.8116 -11.3333 8H10.0001ZM10.5858 6.58579L25.6708 21.6707C22.0451 25.2964 17.1276 27.3333 12.0001 27.3333V6V-15.3333C5.81167 -15.3333 -0.123253 -12.875 -4.4991 -8.49916L10.5858 6.58579ZM20.6601 9.157L27.3893 -11.0872L26.6703 -11.3262L19.9411 8.918L13.2118 29.1622L13.9308 29.4012L20.6601 9.157ZM19.9411 8.918L41.1335 11.366C41.6079 7.25907 41.2088 3.09822 39.9623 -0.843683L19.6217 5.58809L-0.719025 12.0199C-1.28559 10.2281 -1.46699 8.33678 -1.25136 6.46999L19.9411 8.918ZM19.6217 5.58809L39.9623 -0.843683C38.7159 -4.78559 36.6503 -8.41948 33.901 -11.5071L17.9686 2.67989L2.03615 16.8668C0.786462 15.4634 -0.152459 13.8116 -0.719025 12.0199L19.6217 5.58809ZM17.9686 2.67989L33.901 -11.5071C31.1516 -14.5947 27.7807 -17.0662 24.0091 -18.7596L15.2708 0.701913L6.53243 20.1635C4.81809 19.3937 3.28584 18.2703 2.03615 16.8668L17.9686 2.67989ZM15.2708 0.701913L24.0091 -18.7596C20.2376 -20.4531 16.1507 -21.3301 12.0165 -21.3333L12.0001 0L11.9836 21.3333C10.1044 21.3319 8.24676 20.9332 6.53243 20.1635L15.2708 0.701913ZM12.0001 0L11.9918 -21.3333C7.80093 -21.3317 3.65907 -20.4319 -0.154714 -18.6945L8.68947 0.719235L17.5337 20.1329C15.7988 20.9233 13.9147 21.3326 12.0083 21.3333L12.0001 0ZM8.68947 0.719235L-0.154714 -18.6945C-3.9685 -16.957 -7.3656 -14.4224 -10.1171 -11.2613L5.97418 2.74518L22.0655 16.7516C20.8138 18.1896 19.2685 19.3426 17.5337 20.1329L8.68947 0.719235ZM5.97418 2.74518L-10.1171 -11.2613C-12.8687 -8.10017 -14.9107 -4.38604 -16.1057 -0.369135L4.34197 5.71387L24.7897 11.7969C24.2461 13.6241 23.3172 15.3137 22.0655 16.7516L5.97418 2.74518ZM4.34197 5.71387L-16.1057 -0.369135C-17.3007 3.64777 -17.6209 7.87415 -17.0447 12.0252L4.08606 9.092L25.2168 6.15876C25.4789 8.04706 25.3333 9.96961 24.7897 11.7969L4.34197 5.71387ZM4.08606 9.092L0.175705 -11.8799C-4.8279 -10.9469 -9.45474 -8.5863 -13.1468 -5.0827L1.53806 10.392L16.2229 25.8667C13.9431 28.0301 11.0861 29.4878 7.99641 30.0639L4.08606 9.092ZM1.53806 10.392L-13.1613 -5.06896C-15.7585 -2.59965 -17.8233 0.374795 -19.2286 3.67151L0.396134 12.037L20.0208 20.4026C19.1445 22.4583 17.857 24.3131 16.2374 25.853L1.53806 10.392ZM0.396134 12.037L-19.2286 3.67151C-20.6339 6.96823 -21.35 10.5175 -21.333 14.1012L5.5707e-05 14L21.3331 13.8988C21.3438 16.1335 20.8972 18.3468 20.0208 20.4026L0.396134 12.037ZM5.5707e-05 14H-21.3333V18.075H5.5707e-05H21.3334V14H5.5707e-05ZM5.5707e-05 18.075L-21.3332 18.1165C-21.3222 23.7995 -19.4738 29.3266 -16.064 33.8731L1.00265 21.0731L18.0693 8.27306C20.1815 11.0894 21.3265 14.5132 21.3333 18.0335L5.5707e-05 18.075ZM1.00265 21.0731L-16.064 33.8731C-12.6542 38.4195 -7.86569 41.7415 -2.41307 43.3434L3.60006 22.875L9.61318 2.40665C12.9908 3.39892 15.9571 5.45675 18.0693 8.27306L1.00265 21.0731ZM3.60006 22.875L-2.78333 43.2309L0.0866698 44.1309L6.47006 23.775L12.8534 3.41908L9.98344 2.51908L3.60006 22.875ZM6.47006 23.775L0.13058 44.1446C2.67728 44.9372 5.32968 45.338 7.99688 45.3333L7.95906 24L7.92123 2.6667C9.57869 2.66376 11.227 2.91283 12.8095 3.40536L6.47006 23.775ZM7.95906 24L7.98643 45.3333C10.3693 45.3303 12.7407 45.0047 15.0362 44.3656L9.31406 23.814L3.59191 3.2624C5.00498 2.86896 6.46482 2.66857 7.93169 2.66668L7.95906 24ZM9.31406 23.814L15.3662 44.2709L21.1462 42.5609L15.0941 22.104L9.04194 1.64714L3.26194 3.35714L9.31406 23.814ZM15.0941 22.104L20.7113 42.6845C17.5486 43.5477 14.2125 43.5477 11.0498 42.6845L16.6671 22.104L22.2843 1.52348C18.0918 0.379188 13.6693 0.379188 9.47683 1.52348L15.0941 22.104ZM16.6671 22.104L9.88783 42.3315L12.2748 43.1315L19.0541 22.904L25.8333 2.67646L23.4463 1.87646L16.6671 22.104ZM19.0541 22.904L14.0087 43.6321C17.7346 44.539 21.6177 44.5883 25.3654 43.7761L20.8472 22.9267L16.329 2.07735C18.8932 1.52166 21.5501 1.55536 24.0994 2.17586L19.0541 22.904ZM20.8472 22.9267L25.3654 43.7761C29.1131 42.964 32.6275 41.3116 35.6437 38.9437L22.4701 22.1637L9.29651 5.38375C11.3602 3.76357 13.7648 2.63303 16.329 2.07735L20.8472 22.9267ZM22.4701 22.1637L35.6437 38.9437C38.6599 36.5757 41.0992 33.554 42.7777 30.1061L23.5965 20.7683L4.41538 11.4305C5.56382 9.07145 7.23281 7.00392 9.29651 5.38375L22.4701 22.1637ZM23.5965 20.7683L42.7777 30.1061C44.4561 26.6583 45.33 22.8745 45.3334 19.0398L24.0001 19.021L2.66673 19.0022C2.66904 16.3785 3.26695 13.7895 4.41538 11.4305L23.5965 20.7683ZM24.0001 19.021H45.3334V13.872H24.0001H2.66672V19.021H24.0001ZM24.0001 13.872L45.3333 13.8252C45.3214 8.38951 43.6286 3.09059 40.487 -1.34527L23.0776 10.9845L5.66824 23.3144C3.72256 20.5671 2.67417 17.2853 2.66678 13.9188L24.0001 13.872ZM23.0776 10.9845L40.487 -1.34527C37.3387 -5.79061 32.8978 -9.13966 27.7853 -10.9513L20.6601 9.157L13.5348 29.2653C10.3726 28.1448 7.62065 26.0711 5.66824 23.3144L23.0776 10.9845ZM7.75806 3.762L22.8735 18.8164C21.4476 20.248 19.7531 21.384 17.8872 22.1591L9.70334 2.45793L1.5195 -17.2432C-1.80235 -15.8633 -4.81901 -13.841 -7.35736 -11.2924L7.75806 3.762ZM9.70334 2.45793L17.8872 22.1591C16.0212 22.9342 14.0206 23.3332 12.0001 23.3332V1.99988V-19.3335C8.403 -19.3335 4.84135 -18.6231 1.5195 -17.2432L9.70334 2.45793ZM12.0001 1.99988V23.3332C9.97952 23.3332 7.97888 22.9342 6.11294 22.1591L14.2968 2.45793L22.4806 -17.2432C19.1588 -18.6231 15.5971 -19.3335 12.0001 -19.3335V1.99988ZM14.2968 2.45793L6.11294 22.1591C4.247 21.384 2.55249 20.248 1.12664 18.8164L16.2421 3.762L31.3575 -11.2924C28.8191 -13.8411 25.8025 -15.8633 22.4806 -17.2432L14.2968 2.45793ZM16.2421 3.762L1.11042 18.8001C-1.73288 15.9391 -3.33106 12.0709 -3.33628 8.03734L17.997 8.00974L39.3303 7.98213C39.321 0.764748 36.4613 -6.15683 31.3737 -11.2761L16.2421 3.762ZM17.997 8.00974L-3.33628 8.03734C-3.3415 4.0038 -1.75334 0.131444 1.08255 -2.73689L16.2531 12.262L31.4236 27.2609C36.4979 22.1285 39.3397 15.1995 39.3303 7.98213L17.997 8.00974ZM16.2531 12.262L1.38052 -3.0324L-2.17248 0.4226L12.7001 15.717L27.5726 31.0114L31.1256 27.5564L16.2531 12.262ZM12.7001 15.717L-2.23543 0.48406C1.56717 -3.24428 6.68021 -5.33267 12.0056 -5.33267V16.0007V37.334C17.8503 37.334 23.4621 35.0419 27.6355 30.9499L12.7001 15.717ZM12.0056 16.0007V-5.33267C17.3309 -5.33267 22.4439 -3.24428 26.2465 0.48406L11.3111 15.717L-3.62443 30.9499C0.549054 35.0419 6.16079 37.334 12.0056 37.334V16.0007ZM11.3111 15.717L26.1503 0.390297L22.5973 -3.0497L7.75806 12.277L-7.08119 27.6037L-3.52819 31.0437L11.3111 15.717ZM7.75806 12.277L22.8903 -2.76053C25.7376 0.104722 27.3357 3.98009 27.3357 8.0195H6.00236H-15.331C-15.331 15.2496 -12.4705 22.1861 -7.37416 27.3145L7.75806 12.277ZM6.00236 8.0195H27.3357C27.3357 12.0589 25.7376 15.9343 22.8903 18.7995L7.75806 3.762L-7.37416 -11.2755C-12.4705 -6.14706 -15.331 0.789404 -15.331 8.0195H6.00236ZM22.0001 19.021L0.666767 19.0641C0.660827 16.1217 1.32626 13.2167 2.61246 10.5702L21.7998 19.8953L40.9871 29.2205C42.5381 26.0292 43.3405 22.5261 43.3333 18.9779L22.0001 19.021ZM21.7998 19.8953L2.61246 10.5702C3.89866 7.92372 5.77168 5.6056 8.08894 3.79227L21.2361 20.593L34.3832 37.3937C37.1775 35.2071 39.4361 32.4117 40.9871 29.2205L21.7998 19.8953ZM21.2361 20.593L7.86877 3.96691C10.0854 2.18478 12.6673 0.912806 15.4311 0.241405L20.4671 20.9718L25.5031 41.7022C28.8289 40.8943 31.936 39.3636 34.6033 37.2191L21.2361 20.593ZM20.4671 20.9718L15.4311 0.241405C18.1949 -0.429991 21.0726 -0.484339 23.8598 0.0822469L19.6101 20.988L15.3603 41.8938C18.7143 42.5756 22.1773 42.5102 25.5031 41.7022L20.4671 20.9718ZM19.6101 20.988L26.4054 0.765867L24.0604 -0.0221335L17.2651 20.2L10.4697 40.4221L12.8147 41.2101L19.6101 20.988ZM17.2651 20.2L23.1557 -0.303929C18.5015 -1.64105 13.5689 -1.67011 8.89928 -0.387884L14.5481 20.184L20.1968 40.7559C17.3071 41.5494 14.2546 41.5314 11.3744 40.7039L17.2651 20.2ZM14.5481 20.184L8.5063 -0.275919L2.7223 1.43208L8.76406 21.892L14.8058 42.3519L20.5898 40.6439L14.5481 20.184ZM8.76406 21.892L3.09124 1.32673C6.48732 0.389942 10.0814 0.451461 13.4435 1.50395L7.07006 21.863L0.69665 42.222C5.15901 43.619 9.92934 43.7006 14.4369 42.4573L8.76406 21.892ZM7.07006 21.863L13.4052 1.49202L10.5112 0.592014L4.17606 20.963L-2.15909 41.334L0.73491 42.234L7.07006 21.863ZM4.17606 20.963L10.1023 0.469331C13.9108 1.57064 17.2592 3.87765 19.645 7.04399L2.60665 19.8817L-14.4317 32.7194C-11.2612 36.9273 -6.81137 39.9931 -1.75021 41.4567L4.17606 20.963ZM2.60665 19.8817L19.645 7.04399C22.0307 10.2103 23.3249 14.0651 23.3333 18.0296L2.00006 18.075L-19.3332 18.1204C-19.322 23.3889 -17.6021 28.5116 -14.4317 32.7194L2.60665 19.8817ZM2.00006 18.075H23.3334V14H2.00006H-19.3333V18.075H2.00006ZM2.00006 14L23.3331 13.8814C23.347 16.3865 22.8484 18.868 21.8678 21.1733L2.23648 12.8234L-17.3949 4.4735C-18.6918 7.52275 -19.3514 10.8051 -19.3329 14.1186L2.00006 14ZM2.23648 12.8234L21.8678 21.1733C20.8873 23.4786 19.4456 25.559 17.6314 27.2865L2.92006 11.837L-11.7913 -3.61254C-14.191 -1.3275 -16.0979 1.42424 -17.3949 4.4735L2.23648 12.8234ZM2.92006 11.837L17.638 27.2802C14.8634 29.9245 11.329 31.6314 7.53279 32.1603L4.58906 11.031L1.64533 -10.0983C-3.40481 -9.39467 -8.10681 -7.12397 -11.7979 -3.60619L2.92006 11.837ZM4.58906 11.031L-15.1949 19.0126C-13.7197 22.6692 -11.5229 25.9912 -8.73558 28.7803L6.35406 13.7L21.4437 -1.38025C22.7077 -0.115415 23.704 1.39112 24.373 3.04945L4.58906 11.031ZM6.35406 13.7L-8.48396 29.0279L-4.91697 32.4809L9.92106 17.153L24.7591 1.82511L21.1921 -1.62789L6.35406 13.7ZM9.92106 17.153L-5.00441 32.3958C-0.459796 36.8458 5.64753 39.338 12.0081 39.338V18.0046V-3.3287C16.808 -3.3287 21.4169 -1.44796 24.8465 1.91024L9.92106 17.153ZM12.0081 18.0046V39.338C18.3686 39.338 24.4759 36.8458 29.0205 32.3958L14.0951 17.153L-0.830409 1.91024C2.59918 -1.44796 7.20807 -3.3287 12.0081 -3.3287V18.0046ZM14.0951 17.153L28.9638 32.4511L32.5268 28.9881L17.6581 13.69L2.78932 -1.6081L-0.773678 1.8549L14.0951 17.153ZM17.6581 13.69L32.7733 28.7446C35.7086 25.7975 37.9826 22.2592 39.4441 18.365L19.4711 10.869L-0.501957 3.37302C0.165124 1.59558 1.20306 -0.0194245 2.54278 -1.36456L17.6581 13.69ZM19.4711 10.869L12.7588 31.1189L13.2958 31.2969L20.0081 11.047L26.7203 -9.20286L26.1833 -9.38086L19.4711 10.869ZM20.0081 11.047L12.8118 31.13C9.26114 29.8577 6.18948 27.5209 4.01593 24.4384L21.4507 12.1445L38.8855 -0.149318C35.999 -4.24294 31.9197 -7.3463 27.2043 -9.03596L20.0081 11.047ZM21.4507 12.1445L4.01593 24.4384C1.84239 21.3559 0.672792 17.6779 0.666751 13.9062L22.0001 13.872L43.3334 13.8378C43.3253 8.82883 41.7721 3.9443 38.8855 -0.149318L21.4507 12.1445ZM22.0001 13.872H0.666724V19.021H22.0001H43.3334V13.872H22.0001Z" fill="#6C757D" mask="url(#path-1-inside-1_1416_14772)"/>
</g>
<defs>
<clipPath id="clip0_1416_14772">
<rect width="24" height="24" fill="white"/>
</clipPath>
</defs>
</svg>
