<svg width="90" height="113" viewBox="0 0 90 113" fill="none" xmlns="http://www.w3.org/2000/svg">
<path d="M90 113H0V30.0292L45.2242 0L90 30.0292V113Z" fill="#00843D"/>
<path d="M78.7353 102.204C78.1562 102.105 77.4735 101.403 76.6354 100.104C76.1457 99.2518 75.6513 98.3996 75.1617 97.5379C76.6919 97.2366 77.4264 96.3326 77.4122 94.9013C77.4169 94.0302 77.0356 93.3569 76.3152 92.9285C75.7455 92.5848 75.011 92.4106 74.1352 92.4106C73.7868 92.4106 73.2689 92.4294 72.5862 92.4577C71.0324 92.5236 69.78 92.4671 69.3233 92.4153L69.2197 92.4012V92.726C69.2197 92.726 70.7876 92.9944 70.7876 93.5406C70.8017 93.6347 70.8112 94.1291 70.8112 94.8354V100.542C70.8112 101.074 70.7641 101.403 70.717 101.578C70.604 101.959 69.4505 102.232 69.4505 102.232L69.3892 102.614L69.507 102.604C70.2744 102.538 71.0324 102.501 71.7622 102.501C72.492 102.501 73.2077 102.538 73.9045 102.604L74.0081 102.614V102.265C74.0081 102.265 72.8828 101.898 72.5721 101.672C72.412 101.559 72.3837 101.272 72.3837 100.848C72.3837 100.773 72.3837 100.514 72.3979 100.193C72.4073 99.8733 72.412 99.5955 72.412 99.3601V97.7781H73.396C74.559 99.4166 75.43 100.937 76.3387 102.562L76.3717 102.609C76.3717 102.609 77.1862 102.562 77.5817 102.562C77.9772 102.562 78.3916 102.571 78.7259 102.609L78.8295 102.618V102.227L78.7494 102.213L78.7353 102.204ZM73.3348 96.8788H72.3932V93.3334L73.735 93.3193C75.1193 93.3334 75.7361 93.8937 75.7502 95.1037C75.7455 95.8288 75.5054 96.2997 75.0298 96.5633C74.6673 96.7658 74.1023 96.8788 73.3348 96.8788Z" fill="#FED141"/>
<path d="M18.8773 97.8725C18.4583 97.5995 18.0204 97.4064 17.446 97.3075C17.8556 97.1992 18.1899 97.025 18.5524 96.7896C19.1834 96.3612 19.4988 95.6314 19.5035 95.0523C19.5082 94.153 19.1551 93.442 18.4677 92.9759C17.8792 92.5568 17.1447 92.4062 16.2642 92.4062C16.2548 92.4062 15.4779 92.4203 13.9383 92.4485C13.6793 92.458 13.4251 92.458 13.1849 92.458C12.2621 92.4674 11.5135 92.3968 11.5135 92.3968V92.7405C11.5135 92.7405 12.9542 92.9476 13.0767 93.6727C13.0908 93.7716 13.1332 101.135 13.0202 101.394C12.7377 102.03 11.5135 102.237 11.5135 102.237V102.604C11.5135 102.604 12.4175 102.515 13.4251 102.524C13.6511 102.524 13.8959 102.524 14.1407 102.529C15.8263 102.576 16.6738 102.59 16.6879 102.59C17.5684 102.59 18.3076 102.374 18.9009 101.941C19.5836 101.451 19.9367 100.74 19.932 99.8359C19.9367 98.9837 19.5694 98.3104 18.8679 97.8584L18.8773 97.8725ZM14.5692 94.8733C14.5692 94.3837 14.5786 93.9175 14.6022 93.2819C14.9129 93.2631 15.3084 93.2584 15.7604 93.2584C17.1964 93.2725 17.8368 93.7622 17.8509 95.0381C17.8415 96.234 17.1588 96.7472 15.5956 96.7614H14.5833L14.5739 94.8733H14.5692ZM15.6192 101.677H15.5815H15.5956C15.5627 101.677 15.2237 101.658 14.6069 101.634C14.588 101.314 14.588 101.051 14.588 100.763V97.8396H15.5062C17.3895 97.8537 18.2464 98.5176 18.2558 99.8877C18.2511 101.211 17.4272 101.658 15.6144 101.677H15.6192Z" fill="#FED141"/>
<path d="M27.4183 92.2269C25.9399 92.2269 24.7392 92.7307 23.8588 93.7382C22.983 94.7411 22.5452 96.0312 22.5499 97.6038C22.5452 99.0728 22.9689 100.306 23.8164 101.281C24.678 102.284 25.8127 102.792 27.1829 102.792H27.1923C28.6519 102.792 29.8337 102.223 30.7047 101.107C31.5145 100.062 31.9242 98.7432 31.9242 97.1753C31.9242 95.7346 31.5192 94.5528 30.7094 93.6347C29.876 92.6977 28.7696 92.2316 27.4136 92.2316L27.4183 92.2269ZM30.1162 97.891C30.1162 99.0022 29.909 99.9109 29.5041 100.617C29.0144 101.465 28.2987 101.879 27.3288 101.884C26.2365 101.884 25.4502 101.328 24.937 100.165C24.5556 99.3082 24.3626 98.2112 24.3626 96.8693C24.3626 95.8193 24.598 94.9624 25.0735 94.2844C25.6056 93.5075 26.326 93.1262 27.2676 93.1262C29.1651 93.1356 30.1162 94.6564 30.1256 97.8863L30.1162 97.891Z" fill="#FED141"/>
<path d="M39.745 101.502H37V95.0375C37 94.2512 37.0141 93.8557 37.0283 93.6627C37.0753 93.0082 38.695 92.7351 38.695 92.7351V92.4056C38.695 92.4056 37.0236 92.5139 36.2514 92.5139C35.4792 92.5139 33.8925 92.4056 33.8925 92.4056V92.7304C33.8925 92.7304 35.4604 93.0035 35.4604 93.6297C35.4792 93.7333 35.4839 94.2041 35.4839 94.9104V100.386C35.4839 100.928 35.5122 101.182 35.3898 101.431C35.0884 102.044 33.8925 102.208 33.8925 102.208V102.613L33.9914 102.604C34.9896 102.543 36.1243 102.51 37.3579 102.51C38.5914 102.51 39.9333 102.543 41.3458 102.604H41.4353L41.5624 99.8965H41.1575C41.1575 99.8965 40.955 101.559 39.745 101.497V101.502Z" fill="#FED141"/>
<path d="M48.0109 89.7029V89.6935C48.0062 89.2368 47.6343 88.9354 47.2717 88.9401C47.0128 88.9401 46.7774 89.1049 46.5749 89.3168L44.5644 91.784H45.3131L47.606 90.4044C47.865 90.2114 48.0062 89.9854 48.0109 89.7217V89.7123V89.7029Z" fill="#FED141"/>
<path d="M45.6909 92.5327C45.14 92.5327 44.3961 92.495 43.4639 92.415L43.365 92.4056V92.7351C43.365 92.7351 44.6645 93.0459 44.834 93.7569C44.9187 94.1006 44.8811 94.6985 44.8999 95.3436C44.8999 95.3436 44.9423 97.6977 44.9282 98.9596C44.9093 100.673 44.8481 101.431 44.4432 101.785C44.0854 102.1 43.3603 102.199 43.3603 102.199V102.618L43.4592 102.609C44.3349 102.528 45.0788 102.491 45.6862 102.491C46.2182 102.491 46.9433 102.528 47.852 102.613L47.9556 102.623V102.204C47.9556 102.204 47.24 102.067 46.8633 101.775C46.5761 101.559 46.3877 100.678 46.4019 98.9643C46.4019 98.7336 46.4207 95.4754 46.4348 95.3483C46.4537 94.7079 46.449 94.1147 46.4819 93.7569C46.5714 92.9423 47.9603 92.7399 47.9603 92.7399V92.4103L47.8567 92.4197C46.901 92.4997 46.1712 92.5374 45.6909 92.5374V92.5327Z" fill="#FED141"/>
<path d="M58.8743 92.7484L58.9449 92.7343V92.3906L58.8413 92.4094C58.4035 92.4659 57.942 92.4989 57.4477 92.4989C56.9533 92.4989 56.426 92.4659 55.8657 92.4094L55.7668 92.3953V92.7202L55.8327 92.7437C56.2188 92.8755 56.7791 93.0545 56.7508 93.2569C56.5813 94.1845 55.0135 98.4173 54.6085 99.4578C54.2978 98.6951 52.2779 93.4405 52.2873 93.3087C52.2873 93.304 52.1696 93.0262 53.3703 92.7437L53.4409 92.7296V92.3953C53.4409 92.3953 52.0943 92.4942 51.4445 92.4942C49.839 92.4942 49.3635 92.3953 49.3635 92.3953V92.7202C49.3635 92.7202 50.3145 92.9744 50.5876 93.6289C51.5811 96.0066 52.7252 99.067 53.9447 102.716L53.9635 102.782H54.4296L54.4532 102.716C55.3572 100.093 57.2782 94.8483 57.8526 93.6006C58.0456 93.1722 58.3846 92.8661 58.8696 92.739L58.8743 92.7484Z" fill="#FED141"/>
<path d="M63.7073 92.1464L63.6838 92.0852H62.9964L62.9728 92.1464C61.4662 95.913 60.9718 97.0524 59.7005 100.188C59.5075 100.664 59.4086 101.003 59.2109 101.403C58.9519 101.916 58.0197 102.217 58.0197 102.217V102.618L58.1233 102.608C58.6647 102.547 59.2109 102.514 59.7665 102.514C60.322 102.514 60.8823 102.547 61.4473 102.608L61.5509 102.618V102.217L60.3268 101.728C60.7411 100.603 61.0048 99.8822 61.2496 99.2607L62.8598 99.2795L64.6537 99.3077C64.908 99.901 65.1528 100.734 65.4494 101.756C65.0304 101.93 64.5831 102.076 64.1122 102.194L64.0463 102.213V102.622L64.1452 102.613C64.795 102.552 65.4871 102.519 66.2122 102.519C66.9373 102.519 67.6859 102.552 68.4533 102.613L68.5522 102.622V102.222C68.5522 102.222 67.7141 101.982 67.4316 101.676C67.2198 101.45 66.9043 100.49 66.9043 100.49C64.9174 95.4092 64.1876 93.4835 63.7026 92.1511L63.7073 92.1464ZM61.5133 98.545L62.9681 94.67L64.3477 98.5309L61.5133 98.545Z" fill="#FED141"/>
<path d="M52.6279 70.5309H61.4937V61.392C59.3326 64.2594 56.3993 67.3528 52.6279 70.5309ZM37.8956 36.0518C37.8108 36.1836 39.7036 37.1205 39.7036 37.1205C39.7036 37.1205 40.0426 39.4935 41.1349 42.1538C42.8393 42.4645 44.3413 43.279 45.3347 44.7292C45.6266 45.1577 45.8856 46.3818 45.5701 48.1333C45.6831 48.2087 45.7914 48.2793 45.9044 48.3499C48.075 47.6719 49.6805 45.2613 49.6805 45.2565C49.6805 45.2565 49.4875 48.1663 46.0033 49.7295C45.7585 49.5976 45.5231 49.4564 45.2876 49.3104C44.5437 51.8341 42.6745 55.1346 38.5312 58.6423C35.4566 57.6018 34.9058 55.6761 34.9058 55.6761C36.2571 57.3475 38.4511 57.324 38.4511 57.324C41.7281 54.6355 43.442 51.0243 44.0352 48.4253C42.3073 47.0363 41.0501 45.3036 40.1461 43.651C38.3287 43.5615 36.2476 44.0842 34.1477 45.0823C23.8883 49.9413 27.1511 57.098 28.1917 58.9013C29.1428 58.341 30.2398 57.7666 31.4969 57.178C28.8038 58.8401 27.1088 60.488 26.0824 62.0323V70.5215H43.1642C52.7033 65.2858 48.8377 59.7535 48.8377 59.7535C48.8377 59.7535 54.5348 65.1069 45.9798 70.512L43.1642 70.5215H50.7211C55.9897 65.1069 59.6057 60.2432 61.4843 56.3494V47.7425C60.2084 46.8244 58.1179 46.5419 55.1704 47.008C57.6611 45.8969 59.7799 45.4072 61.4843 45.4496V32.8313H41.1114C39.9249 33.4998 38.809 34.5168 37.8861 36.0376L37.8956 36.0518ZM31.1626 55.5207C31.1626 55.5207 26.7086 50.4875 38.0462 47.3329C30.0279 51.5092 31.1626 55.5207 31.1626 55.5207ZM33.8841 50.7229C33.8841 50.7229 35.5743 56.2458 31.3133 59.052C31.3133 59.052 33.3143 55.4171 33.8841 50.7229ZM34.2372 70.5215H31.3274C31.3274 70.5215 34.967 64.0098 41.5728 62.9222C41.5775 62.9363 36.6902 64.7114 34.2372 70.5215ZM47.8349 60.2196C47.8349 60.2196 49.7464 58.0114 48.2539 55.888C47.623 54.9887 45.6314 54.5225 43.894 56.0669C42.1519 57.6112 41.1161 60.9494 44.3177 62.2583C40.5652 62.4278 39.9343 58.035 42.957 55.29C45.3112 53.1383 48.042 53.6892 48.946 54.9604C50.2408 56.7778 49.3792 58.7648 47.8396 60.2243L47.8349 60.2196ZM49.0731 37.582L46.5966 36.565C51.2343 35.8634 52.2842 37.4643 52.2842 37.4643C52.2842 37.4643 51.2766 37.1582 49.0731 37.5773V37.582ZM51.3426 43.4909C50.4998 41.198 51.7475 39.2393 51.7475 39.2393C52.11 43.3073 54.7467 47.2199 54.7467 47.2199C54.7467 47.2199 52.1665 45.7133 51.3426 43.4862V43.4909ZM52.3125 34.9359C52.3125 34.9359 49.5346 34.3426 46.9638 35.0724L44.233 34.1543C49.1061 32.2945 52.3125 34.9359 52.3125 34.9359ZM33.5074 43.4956C35.3013 42.5728 37.3823 42.0172 39.3504 42.0031C38.3758 39.7666 38.0651 38.001 38.0651 38.001C38.0651 38.001 35.7062 37.4454 35.5696 36.8522C35.5696 36.8522 35.6732 34.7711 38.0556 32.8454H26.0918V50.6052C26.8875 48.3123 28.9968 45.8263 33.5074 43.4956ZM43.9881 45.2471C43.4279 44.668 42.7593 44.2584 42.0106 43.9947C42.6086 45.0965 43.3525 46.1653 44.2659 47.0598C44.3413 46.1653 44.2424 45.5108 43.9881 45.2471ZM28.1258 58.9484C27.6079 58.3457 26.6426 57.0698 26.0965 55.3936V60.295C26.685 59.8571 27.3536 59.4051 28.1258 58.9484ZM26.0965 62.0323V60.2903C18.0829 66.284 26.0965 70.5215 26.0965 70.5215C26.0965 70.5215 22.9372 66.7736 26.0965 62.0323ZM26.0965 55.3936V50.6052C25.4844 52.3661 25.6445 54.0188 26.0965 55.3936ZM44.0823 76.8636C47.3075 74.7401 50.1514 72.6167 52.6279 70.5262H50.7352C48.7483 72.5696 46.5354 74.6883 44.0823 76.8636ZM51.1872 32.8454C51.1872 32.8454 47.0533 28.7821 41.1066 31.1221C39.8119 31.6353 38.8231 32.2333 38.0604 32.8454H41.1255C45.6314 30.3076 51.1919 32.8454 51.1919 32.8454H51.1872ZM61.4937 56.3588V61.392C68.2926 52.385 67.5251 45.6144 61.4937 45.4637V47.752C63.5183 49.2021 63.4806 52.2343 61.4937 56.3588Z" fill="#FED141"/>
<path d="M20.5216 86.3565C20.4039 86.6296 20.3144 86.6626 20.3144 86.6626C20.1355 86.752 19.8907 86.8227 19.6364 86.8274C19.0479 86.8462 18.5488 86.6155 18.2992 86.2859C17.9744 85.848 17.8802 85.3348 17.8614 84.7604C17.8378 84.1813 17.9932 83.6775 18.2945 83.2632C18.5959 82.863 19.0997 82.6699 19.7023 82.6699C20.1214 82.6699 20.2862 82.7358 20.4039 82.8535C20.5451 82.9995 20.7193 83.588 20.7193 83.588H20.8606V83.5315C20.8465 83.3103 20.8417 83.0937 20.8417 82.8912C20.8417 82.6746 20.8465 82.4722 20.8559 82.2697V82.2273L20.8182 82.2179C20.4886 82.1473 20.1449 82.1143 19.7777 82.1143C19.0055 82.1143 18.2663 82.3874 17.7766 82.8441C17.1975 83.3715 16.8867 84.0259 16.8915 84.8263C16.8915 85.6173 17.1598 86.253 17.6966 86.7191C18.1957 87.1428 18.8172 87.3641 19.5893 87.3641C20.0696 87.3641 20.4227 87.3123 20.837 87.1711L20.8841 87.157C20.8841 87.157 20.8606 86.672 20.8606 85.8433H20.7052C20.7052 85.8433 20.6016 86.14 20.5122 86.3471L20.5216 86.3565Z" fill="#FED141"/>
<path d="M23.8418 82.1795C23.1026 82.1795 22.5093 82.429 22.0667 82.9281C21.6336 83.4272 21.4123 84.0722 21.4123 84.8538C21.4123 85.5836 21.6242 86.2004 22.0432 86.6853C22.4764 87.1844 23.0367 87.4434 23.7241 87.4434H23.7288C24.4586 87.4434 25.0471 87.1562 25.4803 86.6006C25.8852 86.078 26.0877 85.4235 26.0877 84.6372C26.0877 83.9216 25.8852 83.3283 25.4897 82.8763C25.0707 82.4149 24.5198 82.1795 23.8465 82.1795H23.8418ZM25.1789 84.9998C25.1789 85.5506 25.0801 86.0026 24.8776 86.3558C24.6328 86.7795 24.2797 86.9867 23.7947 86.9867C23.2532 86.9867 22.8624 86.7089 22.6082 86.1345C22.4152 85.7013 22.3163 85.1598 22.3163 84.4913C22.3163 83.9639 22.434 83.5402 22.6741 83.2012C22.9425 82.8151 23.3003 82.6268 23.7664 82.6221C24.7081 82.6268 25.1837 83.3895 25.1837 84.9951L25.1789 84.9998Z" fill="#FED141"/>
<path d="M31.2891 82.3351C31.1431 82.3869 31.0395 82.434 30.8983 82.4811C30.6911 82.5706 30.7005 82.8437 30.6911 82.9661C30.6488 83.6299 30.644 84.3079 30.644 85.2119C30.644 85.3956 30.644 86.0218 30.6676 87.3213H30.2344C29.7871 86.7139 29.4528 86.2525 28.869 85.4191C28.3699 84.7129 28.0827 84.242 27.5742 83.4887L27.5083 83.3663C27.5083 83.3663 27.5271 84.5292 27.5271 85.0095C27.5271 85.4474 27.5413 86.3843 27.5836 86.7704C27.6495 87.0953 28.0356 87.067 28.1816 87.1141L28.191 87.2742C27.5507 87.213 26.9103 87.213 26.2841 87.2742V87.1188L26.6278 87.0011C26.9621 86.9164 26.9527 85.7157 26.9527 84.4162L26.9292 82.9378C26.9292 82.4764 26.5195 82.3964 26.27 82.3069L26.2606 82.1751C26.722 82.2363 27.2917 82.2363 27.7296 82.1751C28.0074 82.7165 28.4405 83.4275 28.9726 84.1855C29.4058 84.7976 29.6788 85.1601 30.1167 85.7628V85.4285C30.1167 85.4285 30.0932 83.6676 30.0838 83.5028C30.079 83.2297 30.0743 82.8107 30.0131 82.6694C29.9284 82.467 29.7448 82.4434 29.401 82.2928V82.1751C29.9896 82.2363 30.6158 82.2363 31.2891 82.1751V82.3304V82.3351Z" fill="#FED141"/>
<path d="M34.5307 85.1642L34.4836 85.1077H34.4789C34.3377 84.9382 34.1682 84.8158 34.041 84.7405C33.7303 84.5757 33.4807 84.4486 33.1512 84.2791C32.7745 84.0578 32.5909 83.7988 32.5909 83.4881C32.5909 83.2574 32.6756 83.0596 32.8357 82.8948C32.864 82.8666 32.8922 82.8477 32.9157 82.8242L32.9393 82.8148C33.0005 82.7677 33.0711 82.7394 33.1512 82.7253C33.2453 82.6971 33.3536 82.6782 33.4949 82.6782C33.5702 82.6782 33.6879 82.6877 33.7821 82.7018C33.881 82.7112 33.961 82.73 34.074 82.7677L34.3377 83.5869H34.4695L34.5166 82.4428L34.4883 82.4287C34.1352 82.2686 33.7727 82.1839 33.3913 82.1839C32.9534 82.1839 32.5862 82.2969 32.2801 82.537C31.9317 82.8054 31.7528 83.1726 31.7528 83.6199C31.7528 83.7659 31.7763 83.9071 31.8187 84.0342C31.9741 84.4203 32.2942 84.6557 32.4496 84.7546L32.5108 84.7923L32.5344 84.8064C32.8122 84.9759 33.0382 85.1407 33.3489 85.3149C33.7303 85.5456 33.9139 85.8046 33.9139 86.0824C33.9139 86.1812 33.8998 86.2707 33.881 86.3555C33.735 86.8404 33.2171 86.8875 33.2171 86.8875C33.09 86.911 32.9722 86.9157 32.8734 86.9157C32.4543 86.9157 32.1671 86.7462 32.1671 86.7368L32.0212 85.8234L31.8658 85.8564L31.8328 85.8705L31.7057 87.203L31.7387 87.2124C32.0918 87.3583 32.4543 87.4337 32.831 87.4337C33.3489 87.4337 33.7821 87.3301 34.1305 87.1135C34.559 86.8545 34.7802 86.4543 34.7802 85.9364C34.7802 85.6539 34.7049 85.3949 34.5495 85.1737L34.5307 85.1642Z" fill="#FED141"/>
<path d="M39.167 83.5355H39.0634C38.9081 83.107 38.8045 82.8528 38.7339 82.7727C38.6538 82.6691 38.4937 82.6315 38.2583 82.6315C38.2112 82.6315 38.1124 82.6362 37.9617 82.6456C37.8157 82.6456 37.7686 82.6503 37.6651 82.6503V86.1109C37.6651 86.5206 37.7027 86.7042 37.7734 86.7983C37.8299 86.8737 37.9805 86.982 38.3901 87.1232V87.2645C37.6462 87.2033 36.907 87.2033 36.1678 87.2645V87.1232C36.568 86.982 36.714 86.8737 36.7799 86.7983C36.8505 86.7042 36.8929 86.5253 36.8929 86.1109V82.6503C36.7846 82.6503 36.7375 82.6503 36.5916 82.6456C36.4456 82.6362 36.342 82.6315 36.2949 82.6315C36.0642 82.6315 35.9089 82.6691 35.8241 82.7727C35.7535 82.8575 35.6593 83.1117 35.5039 83.5355H35.3956V82.1795C36.6528 82.2407 37.9146 82.2407 39.1717 82.1795V83.5355H39.167Z" fill="#FED141"/>
<path d="M43.5984 86.0256C43.3583 85.5971 43.1088 85.1781 42.8686 84.7449C43.6314 84.5942 43.9939 84.1469 43.9892 83.436C43.9892 82.9981 43.8009 82.6638 43.4431 82.4519C43.1559 82.2777 42.7933 82.1977 42.3601 82.1977C42.1859 82.1977 41.9317 82.2071 41.588 82.2165C41.2443 82.2259 40.9053 82.2354 40.7358 82.2354C40.4533 82.2354 40.1943 82.2259 39.9636 82.1977L39.9165 82.1883V82.3954C39.9165 82.3954 40.6275 82.4519 40.6934 82.7956C40.6981 82.8427 40.7075 83.0546 40.7075 83.4077V86.2092C40.7075 86.4776 40.6793 86.6894 40.6604 86.7695C40.6039 86.9908 40.0342 87.0944 40.0342 87.0944L40.0013 87.2733L40.0578 87.2639C40.4391 87.2309 40.8205 87.2121 41.1784 87.2121C41.5362 87.2121 41.894 87.2309 42.2424 87.2639L42.2942 87.2733V87.1179C42.2942 87.1179 41.781 86.9625 41.6021 86.8119C41.5268 86.7459 41.4938 86.6518 41.4891 86.4399C41.4891 86.4022 41.4938 86.228 41.4985 86.0726C41.4985 85.9126 41.5079 85.7713 41.5079 85.6536V84.8673H41.9929C42.572 85.6771 43.0052 86.4352 43.4572 87.2403L43.4996 87.2639C43.6738 87.2497 43.8762 87.2403 44.0693 87.2403C44.2623 87.2403 44.493 87.2497 44.6578 87.2639L44.7096 87.2733V87.0755C44.38 87.0237 44.0222 86.6706 43.6079 86.0256H43.5984ZM41.9552 84.4247H41.4891V82.6591H42.1247C42.8404 82.6591 43.1511 82.9416 43.1559 83.5396C43.1559 83.9021 43.0381 84.1328 42.8027 84.2694C42.6238 84.3682 42.3413 84.4247 41.9552 84.4247Z" fill="#FED141"/>
<path d="M48.6814 82.2272C48.3612 82.2272 48.0364 82.213 47.7303 82.1801H47.6785V82.3449C47.6785 82.3449 48.2718 82.439 48.3612 82.7168C48.4224 83.0276 48.4507 83.4749 48.4507 83.9692C48.4507 84.1435 48.4601 85.9468 48.1729 86.3328C47.9799 86.5918 47.6832 86.7566 47.2877 86.7566C46.7698 86.7566 46.4779 86.6153 46.2707 86.3517C45.7952 85.7349 46.0306 83.07 46.0353 82.8675C46.0447 82.4955 46.8028 82.3496 46.8028 82.3496V82.1754H46.751C46.3743 82.2083 45.9741 82.2225 45.5927 82.2225C45.2114 82.2225 44.8253 82.2083 44.4769 82.1754H44.4251V82.3449C44.4251 82.3449 45.2349 82.5144 45.2349 82.9475C45.2349 83.0982 45.1078 84.5295 45.1172 85.1228C45.1266 85.7867 45.2255 86.2952 45.4562 86.6483C45.7669 87.1097 46.4355 87.3357 47.1559 87.3357C47.8763 87.3357 48.4695 87.0579 48.7567 86.5023C48.9498 86.1163 49.0392 85.5513 49.0392 84.7838V84.6661C49.0392 84.0823 49.0298 83.6302 49.0298 83.3148C49.0298 82.9993 49.0392 82.8157 49.0392 82.7828C49.0675 82.4155 49.656 82.3355 49.656 82.3355V82.1707H49.6042C49.317 82.2036 49.0063 82.2177 48.6861 82.2177L48.6814 82.2272Z" fill="#FED141"/>
<path d="M53.3354 86.346C53.213 86.6238 53.1188 86.6521 53.1188 86.6521C52.9399 86.7462 52.6998 86.8122 52.4502 86.8169C51.8617 86.831 51.3626 86.6003 51.1131 86.2754C50.7882 85.8375 50.694 85.3196 50.6752 84.7452C50.6564 84.1614 50.807 83.6576 51.1084 83.2479C51.4097 82.8477 51.9135 82.6594 52.5161 82.6594C52.9352 82.6594 53.1 82.7206 53.2224 82.843C53.3636 82.9843 53.5331 83.5775 53.5331 83.5775H53.6744V83.521C53.6603 83.2997 53.6556 83.0831 53.6556 82.8713C53.6556 82.6594 53.6603 82.4617 53.6697 82.2639V82.2215L53.632 82.2121C53.3024 82.1462 52.954 82.1038 52.5915 82.1085C51.824 82.1085 51.0848 82.391 50.5999 82.8383C50.016 83.3751 49.71 84.0201 49.71 84.8252C49.71 85.6304 49.9831 86.2519 50.5151 86.718C51.0142 87.1464 51.6357 87.363 52.4079 87.363C52.8834 87.363 53.2459 87.3159 53.6556 87.17L53.7026 87.1559C53.7026 87.1559 53.6744 86.6709 53.6744 85.8422H53.5237C53.5237 85.8422 53.4201 86.1389 53.3354 86.346Z" fill="#FED141"/>
<path d="M58.0292 83.5487H57.9209C57.7655 83.1249 57.6573 82.866 57.5913 82.7859C57.5113 82.6729 57.3512 82.6447 57.1205 82.6447C57.0734 82.6447 56.9698 82.6447 56.8239 82.6494C56.6779 82.6541 56.6308 82.6541 56.5273 82.6541V86.1194C56.5273 86.5338 56.5602 86.7127 56.6355 86.8068C56.6968 86.8822 56.8427 86.9858 57.2523 87.127V87.273C56.5131 87.2023 55.7739 87.2023 55.0347 87.273V87.127C55.4349 86.9905 55.5856 86.8822 55.6421 86.8068C55.7174 86.7127 55.7551 86.5338 55.7551 86.1194V82.6541C55.6515 82.6541 55.6044 82.6541 55.4585 82.6494C55.3078 82.6494 55.2089 82.6447 55.1571 82.6447C54.9311 82.6447 54.771 82.6729 54.6863 82.7859C54.6204 82.866 54.5168 83.1249 54.3708 83.5487H54.2625V82.1927C55.5197 82.2539 56.7815 82.2539 58.0386 82.1927V83.5487H58.0292Z" fill="#FED141"/>
<path d="M60.7927 82.1795C60.0535 82.1795 59.4603 82.429 59.0177 82.9281C58.5845 83.4272 58.3679 84.0722 58.3679 84.8538C58.3679 85.5836 58.5798 86.2004 58.9941 86.6853C59.4273 87.1844 59.9923 87.4434 60.6797 87.4434C61.4095 87.4434 61.9981 87.1562 62.4312 86.6006C62.8314 86.078 63.0386 85.4235 63.0386 84.6372C63.0386 83.9216 62.8361 83.3283 62.4312 82.8763C62.0122 82.4149 61.466 82.1795 60.7927 82.1795ZM62.1346 84.9998C62.1346 85.5506 62.0357 86.0026 61.8286 86.3558C61.5837 86.7795 61.2306 86.9867 60.7456 86.9867C60.1995 86.9867 59.8134 86.7089 59.5544 86.1345C59.3614 85.7013 59.2672 85.1598 59.2672 84.4913C59.2672 83.9639 59.3849 83.5402 59.6156 83.2012C59.884 82.8151 60.2419 82.6268 60.708 82.6221C61.6544 82.6268 62.1205 83.3895 62.1299 84.9951L62.1346 84.9998Z" fill="#FED141"/>
<path d="M66.9218 86.0356C66.6769 85.6118 66.4321 85.1787 66.1826 84.7455C66.95 84.5996 67.3126 84.1428 67.3078 83.4272C67.3126 82.9893 67.1242 82.655 66.7617 82.4431C66.4745 82.2689 66.1119 82.1795 65.6693 82.1795C65.4904 82.1795 65.2362 82.1889 64.8925 82.203C64.5535 82.2124 64.2051 82.2171 64.0356 82.2171C63.7531 82.2171 63.4894 82.2077 63.2587 82.1795H63.2022V82.3772C63.2022 82.3772 63.9226 82.4337 63.9838 82.7821C63.9932 82.8292 63.9979 83.0411 63.9979 83.3989V86.2239C63.9979 86.4923 63.9743 86.7042 63.9508 86.7842C63.8943 87.0102 63.3199 87.1138 63.3199 87.1138L63.2869 87.288H63.3434C63.7295 87.2503 64.1062 87.2315 64.4687 87.2315C64.8313 87.2315 65.1938 87.2503 65.5422 87.2833H65.594V87.1326C65.594 87.1326 65.0761 86.982 64.8972 86.8219C64.8218 86.7607 64.7842 86.6618 64.7842 86.4499C64.7842 86.4123 64.7842 86.2381 64.7889 86.078C64.7889 85.9179 64.7936 85.7766 64.7936 85.6589V84.8679H65.2833C65.8624 85.6872 66.3003 86.4499 66.757 87.2598L66.7993 87.2786C66.9783 87.2598 67.1807 87.2598 67.3738 87.2598C67.5668 87.2598 67.7975 87.2598 67.9623 87.2786H68.0141V87.0903C67.6798 87.0385 67.322 86.6806 66.9076 86.0309L66.9218 86.0356ZM65.2691 84.4253H64.7983V82.6503L65.4386 82.6409C66.159 82.6503 66.4698 82.9281 66.4792 83.5308C66.4792 83.8933 66.3568 84.1334 66.1166 84.2653C65.9377 84.3688 65.6505 84.4253 65.2691 84.4253Z" fill="#FED141"/>
<path d="M70.0471 85.3246L70.7486 83.4554L71.4125 85.3152L70.0518 85.3246H70.0471ZM71.1017 82.2077L71.0923 82.1795H70.7627L70.7533 82.2077C70.0282 84.0204 69.7834 84.6043 69.176 86.1156C69.0819 86.3463 69.0348 86.5111 68.9359 86.6995C68.8135 86.9443 68.3709 87.0903 68.3709 87.0903V87.2833H68.418C68.6816 87.2456 68.9406 87.2362 69.2043 87.2362C69.4679 87.2362 69.7457 87.2456 70.0188 87.2786H70.0706V87.095L69.4821 86.8548C69.6798 86.3134 69.8069 85.965 69.9246 85.6683L70.7015 85.6778L71.5679 85.6919C71.6903 85.9791 71.808 86.3793 71.9492 86.8643C71.7468 86.949 71.5302 87.0243 71.3042 87.0808H71.2712V87.288H71.3183C71.6291 87.2503 71.9634 87.2409 72.3165 87.2409C72.6696 87.2409 73.0274 87.2503 73.39 87.2833H73.4371V87.0997C73.4371 87.0997 73.0369 86.982 72.8956 86.836C72.7967 86.7324 72.6461 86.2663 72.6461 86.2663C71.6903 83.8227 71.3419 82.8528 71.1064 82.2171L71.1017 82.2077Z" fill="#FED141"/>
</svg>
